solid OpenSCAD_Model
  facet normal -1 0 0
    outer loop
      vertex 0 16.4745 2.05496
      vertex 0 50.95 0
      vertex 0 16.8 0
    endloop
  endfacet
  facet normal -1 0 0
    outer loop
      vertex 0 50.95 0
      vertex 0 16.4745 2.05496
      vertex 0 50.95 15
    endloop
  endfacet
  facet normal -1 0 0
    outer loop
      vertex 0 15.53 3.90877
      vertex 0 50.95 15
      vertex 0 16.4745 2.05496
    endloop
  endfacet
  facet normal -1 0 0
    outer loop
      vertex 0 14.0588 5.37996
      vertex 0 50.95 15
      vertex 0 15.53 3.90877
    endloop
  endfacet
  facet normal -1 0 0
    outer loop
      vertex 0 12.205 6.32453
      vertex 0 50.95 15
      vertex 0 14.0588 5.37996
    endloop
  endfacet
  facet normal -1 0 0
    outer loop
      vertex 0 0 15
      vertex 0 12.205 6.32453
      vertex 0 10.15 6.65
    endloop
  endfacet
  facet normal -1 0 0
    outer loop
      vertex 0 0 15
      vertex 0 10.15 6.65
      vertex 0 8.09504 6.32453
    endloop
  endfacet
  facet normal -1 0 0
    outer loop
      vertex 0 0 0
      vertex 0 3.82547 2.05496
      vertex 0 3.5 0
    endloop
  endfacet
  facet normal -1 0 0
    outer loop
      vertex 0 0 0
      vertex 0 4.77004 3.90877
      vertex 0 3.82547 2.05496
    endloop
  endfacet
  facet normal -1 0 0
    outer loop
      vertex 0 0 15
      vertex 0 4.77004 3.90877
      vertex 0 0 0
    endloop
  endfacet
  facet normal -1 0 0
    outer loop
      vertex 0 12.205 6.32453
      vertex 0 0 15
      vertex 0 50.95 15
    endloop
  endfacet
  facet normal -1 0 0
    outer loop
      vertex 0 6.24123 5.37996
      vertex 0 0 15
      vertex 0 8.09504 6.32453
    endloop
  endfacet
  facet normal -1 0 0
    outer loop
      vertex 0 4.77004 3.90877
      vertex 0 0 15
      vertex 0 6.24123 5.37996
    endloop
  endfacet
  facet normal -0 0 1
    outer loop
      vertex 0 50.95 15
      vertex 3.5 27.65 15
      vertex 3.5 50.95 15
    endloop
  endfacet
  facet normal 0 0 1
    outer loop
      vertex 0 0 15
      vertex 2 18.3 15
      vertex 2 20.3 15
    endloop
  endfacet
  facet normal 0 0 1
    outer loop
      vertex 2 18.3 15
      vertex 0 0 15
      vertex 2 2 15
    endloop
  endfacet
  facet normal 0 0 1
    outer loop
      vertex 3.5 27.65 15
      vertex 0 50.95 15
      vertex 2 20.3 15
    endloop
  endfacet
  facet normal 0 0 1
    outer loop
      vertex 0 0 15
      vertex 2 20.3 15
      vertex 0 50.95 15
    endloop
  endfacet
  facet normal 0 0 1
    outer loop
      vertex 2 2 15
      vertex 0 0 15
      vertex 2 0 15
    endloop
  endfacet
  facet normal -0 0 1
    outer loop
      vertex 6 7.65 15
      vertex 7 2 15
      vertex 8 7.65 15
    endloop
  endfacet
  facet normal 0 0 1
    outer loop
      vertex 2 2 15
      vertex 6 7.65 15
      vertex 2 18.3 15
    endloop
  endfacet
  facet normal 0 0 1
    outer loop
      vertex 6 7.65 15
      vertex 2 2 15
      vertex 7 2 15
    endloop
  endfacet
  facet normal 0 0 1
    outer loop
      vertex 8.8 27.65 15
      vertex 8 12.65 15
      vertex 8.8 0 15
    endloop
  endfacet
  facet normal 0 0 1
    outer loop
      vertex 7 18.3 15
      vertex 8.8 27.65 15
      vertex 7 20.3 15
    endloop
  endfacet
  facet normal -0 0 1
    outer loop
      vertex 3.5 27.65 15
      vertex 7 20.3 15
      vertex 8.8 27.65 15
    endloop
  endfacet
  facet normal 0 0 1
    outer loop
      vertex 7 20.3 15
      vertex 3.5 27.65 15
      vertex 2 20.3 15
    endloop
  endfacet
  facet normal -0 0 1
    outer loop
      vertex 8 7.65 15
      vertex 8.8 0 15
      vertex 8 12.65 15
    endloop
  endfacet
  facet normal -0 0 1
    outer loop
      vertex 7 2 15
      vertex 8.8 0 15
      vertex 8 7.65 15
    endloop
  endfacet
  facet normal 0 0 1
    outer loop
      vertex 8.8 0 15
      vertex 7 2 15
      vertex 7 0 15
    endloop
  endfacet
  facet normal 0 0 1
    outer loop
      vertex 8.8 27.65 15
      vertex 7 18.3 15
      vertex 8 12.65 15
    endloop
  endfacet
  facet normal 0 0 1
    outer loop
      vertex 7 18.3 15
      vertex 6 12.65 15
      vertex 8 12.65 15
    endloop
  endfacet
  facet normal 0 0 1
    outer loop
      vertex 6 12.65 15
      vertex 2 18.3 15
      vertex 6 7.65 15
    endloop
  endfacet
  facet normal -0 0 1
    outer loop
      vertex 2 18.3 15
      vertex 6 12.65 15
      vertex 7 18.3 15
    endloop
  endfacet
  facet normal 0 0 1
    outer loop
      vertex 20.6 18.3 15
      vertex 16.6 12.65 15
      vertex 20.6 2 15
    endloop
  endfacet
  facet normal -0 0 1
    outer loop
      vertex 15.6 18.3 15
      vertex 16.6 12.65 15
      vertex 20.6 18.3 15
    endloop
  endfacet
  facet normal 0 0 1
    outer loop
      vertex 16.6 12.65 15
      vertex 15.6 18.3 15
      vertex 14.6 12.65 15
    endloop
  endfacet
  facet normal 0 0 1
    outer loop
      vertex 22.6 50.95 15
      vertex 20.6 20.3 15
      vertex 22.6 0 15
    endloop
  endfacet
  facet normal 0 0 1
    outer loop
      vertex 19.1 27.65 15
      vertex 22.6 50.95 15
      vertex 19.1 50.95 15
    endloop
  endfacet
  facet normal 0 0 1
    outer loop
      vertex 22.6 50.95 15
      vertex 19.1 27.65 15
      vertex 20.6 20.3 15
    endloop
  endfacet
  facet normal 0 0 1
    outer loop
      vertex 19.1 27.65 15
      vertex 15.6 20.3 15
      vertex 20.6 20.3 15
    endloop
  endfacet
  facet normal 0 0 1
    outer loop
      vertex 13.8 27.65 15
      vertex 15.6 18.3 15
      vertex 15.6 20.3 15
    endloop
  endfacet
  facet normal 0 0 1
    outer loop
      vertex 13.8 0 15
      vertex 14.6 12.65 15
      vertex 13.8 27.65 15
    endloop
  endfacet
  facet normal 0 0 1
    outer loop
      vertex 15.6 18.3 15
      vertex 13.8 27.65 15
      vertex 14.6 12.65 15
    endloop
  endfacet
  facet normal -0 0 1
    outer loop
      vertex 13.8 27.65 15
      vertex 15.6 20.3 15
      vertex 19.1 27.65 15
    endloop
  endfacet
  facet normal -0 0 1
    outer loop
      vertex 20.6 18.3 15
      vertex 22.6 0 15
      vertex 20.6 20.3 15
    endloop
  endfacet
  facet normal -0 0 1
    outer loop
      vertex 20.6 2 15
      vertex 22.6 0 15
      vertex 20.6 18.3 15
    endloop
  endfacet
  facet normal 0 0 1
    outer loop
      vertex 22.6 0 15
      vertex 20.6 2 15
      vertex 20.6 0 15
    endloop
  endfacet
  facet normal -0 0 1
    outer loop
      vertex 16.6 7.65 15
      vertex 20.6 2 15
      vertex 16.6 12.65 15
    endloop
  endfacet
  facet normal 0 0 1
    outer loop
      vertex 16.6 7.65 15
      vertex 15.6 2 15
      vertex 20.6 2 15
    endloop
  endfacet
  facet normal -0 0 1
    outer loop
      vertex 14.6 7.65 15
      vertex 15.6 2 15
      vertex 16.6 7.65 15
    endloop
  endfacet
  facet normal 0 0 1
    outer loop
      vertex 13.8 0 15
      vertex 15.6 2 15
      vertex 14.6 7.65 15
    endloop
  endfacet
  facet normal 0 0 1
    outer loop
      vertex 15.6 2 15
      vertex 13.8 0 15
      vertex 15.6 0 15
    endloop
  endfacet
  facet normal 0 0 1
    outer loop
      vertex 14.6 12.65 15
      vertex 13.8 0 15
      vertex 14.6 7.65 15
    endloop
  endfacet
  facet normal 1 -0 0
    outer loop
      vertex 22.6 16.4745 2.05496
      vertex 22.6 50.95 0
      vertex 22.6 50.95 15
    endloop
  endfacet
  facet normal 1 0 0
    outer loop
      vertex 22.6 50.95 0
      vertex 22.6 16.4745 2.05496
      vertex 22.6 16.8 0
    endloop
  endfacet
  facet normal 1 0 0
    outer loop
      vertex 22.6 50.95 15
      vertex 22.6 15.53 3.90877
      vertex 22.6 16.4745 2.05496
    endloop
  endfacet
  facet normal 1 0 0
    outer loop
      vertex 22.6 50.95 15
      vertex 22.6 14.0588 5.37996
      vertex 22.6 15.53 3.90877
    endloop
  endfacet
  facet normal 1 0 0
    outer loop
      vertex 22.6 50.95 15
      vertex 22.6 12.205 6.32453
      vertex 22.6 14.0588 5.37996
    endloop
  endfacet
  facet normal 1 -0 0
    outer loop
      vertex 22.6 0 15
      vertex 22.6 12.205 6.32453
      vertex 22.6 50.95 15
    endloop
  endfacet
  facet normal 1 0 0
    outer loop
      vertex 22.6 12.205 6.32453
      vertex 22.6 0 15
      vertex 22.6 10.15 6.65
    endloop
  endfacet
  facet normal 1 0 0
    outer loop
      vertex 22.6 10.15 6.65
      vertex 22.6 0 15
      vertex 22.6 8.09504 6.32453
    endloop
  endfacet
  facet normal 1 0 0
    outer loop
      vertex 22.6 0 15
      vertex 22.6 6.24123 5.37996
      vertex 22.6 8.09504 6.32453
    endloop
  endfacet
  facet normal 1 0 0
    outer loop
      vertex 22.6 0 15
      vertex 22.6 4.77004 3.90877
      vertex 22.6 6.24123 5.37996
    endloop
  endfacet
  facet normal 1 0 0
    outer loop
      vertex 22.6 0 0
      vertex 22.6 4.77004 3.90877
      vertex 22.6 0 15
    endloop
  endfacet
  facet normal 1 0 0
    outer loop
      vertex 22.6 4.77004 3.90877
      vertex 22.6 0 0
      vertex 22.6 3.82547 2.05496
    endloop
  endfacet
  facet normal 1 0 0
    outer loop
      vertex 22.6 3.82547 2.05496
      vertex 22.6 0 0
      vertex 22.6 3.5 0
    endloop
  endfacet
  facet normal 0 0 -1
    outer loop
      vertex 20.6 20.3 0
      vertex 22.6 16.8 0
      vertex 20.6 18.3 0
    endloop
  endfacet
  facet normal 0 0 -1
    outer loop
      vertex 22.6 16.8 0
      vertex 15.6 18.3 0
      vertex 20.6 18.3 0
    endloop
  endfacet
  facet normal 0 0 -1
    outer loop
      vertex 15.6 18.3 0
      vertex 7 18.3 0
      vertex 15.6 20.3 0
    endloop
  endfacet
  facet normal 0 0 -1
    outer loop
      vertex 22.6 16.8 0
      vertex 7 18.3 0
      vertex 15.6 18.3 0
    endloop
  endfacet
  facet normal 0 0 -1
    outer loop
      vertex 0 16.8 0
      vertex 7 18.3 0
      vertex 22.6 16.8 0
    endloop
  endfacet
  facet normal -0 0 -1
    outer loop
      vertex 2 18.3 0
      vertex 0 16.8 0
      vertex 2 20.3 0
    endloop
  endfacet
  facet normal -0 0 -1
    outer loop
      vertex 7 18.3 0
      vertex 0 16.8 0
      vertex 2 18.3 0
    endloop
  endfacet
  facet normal 0 0 -1
    outer loop
      vertex 22.6 16.8 0
      vertex 20.6 20.3 0
      vertex 22.6 50.95 0
    endloop
  endfacet
  facet normal 0 0 -1
    outer loop
      vertex 15.6 20.3 0
      vertex 22.6 50.95 0
      vertex 20.6 20.3 0
    endloop
  endfacet
  facet normal 0 0 -1
    outer loop
      vertex 7 20.3 0
      vertex 15.6 20.3 0
      vertex 7 18.3 0
    endloop
  endfacet
  facet normal 0 0 -1
    outer loop
      vertex 15.6 20.3 0
      vertex 7 20.3 0
      vertex 22.6 50.95 0
    endloop
  endfacet
  facet normal 0 0 -1
    outer loop
      vertex 0 50.95 0
      vertex 7 20.3 0
      vertex 2 20.3 0
    endloop
  endfacet
  facet normal 0 0 -1
    outer loop
      vertex 7 20.3 0
      vertex 0 50.95 0
      vertex 22.6 50.95 0
    endloop
  endfacet
  facet normal 0 0 -1
    outer loop
      vertex 0 50.95 0
      vertex 2 20.3 0
      vertex 0 16.8 0
    endloop
  endfacet
  facet normal 0 0 -1
    outer loop
      vertex 2 0 0
      vertex 0 0 0
      vertex 2 2 0
    endloop
  endfacet
  facet normal 0 0 -1
    outer loop
      vertex 15.6 0 0
      vertex 7 0 0
      vertex 15.6 2 0
    endloop
  endfacet
  facet normal 0 0 -1
    outer loop
      vertex 20.6 2 0
      vertex 22.6 0 0
      vertex 20.6 0 0
    endloop
  endfacet
  facet normal 0 0 -1
    outer loop
      vertex 22.6 0 0
      vertex 20.6 2 0
      vertex 22.6 3.5 0
    endloop
  endfacet
  facet normal 0 0 -1
    outer loop
      vertex 15.6 2 0
      vertex 22.6 3.5 0
      vertex 20.6 2 0
    endloop
  endfacet
  facet normal 0 0 -1
    outer loop
      vertex 7 2 0
      vertex 15.6 2 0
      vertex 7 0 0
    endloop
  endfacet
  facet normal 0 0 -1
    outer loop
      vertex 7 2 0
      vertex 22.6 3.5 0
      vertex 15.6 2 0
    endloop
  endfacet
  facet normal 0 0 -1
    outer loop
      vertex 0 3.5 0
      vertex 7 2 0
      vertex 2 2 0
    endloop
  endfacet
  facet normal 0 0 -1
    outer loop
      vertex 7 2 0
      vertex 0 3.5 0
      vertex 22.6 3.5 0
    endloop
  endfacet
  facet normal 0 0 -1
    outer loop
      vertex 0 3.5 0
      vertex 2 2 0
      vertex 0 0 0
    endloop
  endfacet
  facet normal 0 -1 0
    outer loop
      vertex 0 0 0
      vertex 2 0 15
      vertex 0 0 15
    endloop
  endfacet
  facet normal 0 -1 -0
    outer loop
      vertex 2 0 15
      vertex 0 0 0
      vertex 2 0 0
    endloop
  endfacet
  facet normal 0 -1 0
    outer loop
      vertex 20.6 0 0
      vertex 22.6 0 15
      vertex 20.6 0 15
    endloop
  endfacet
  facet normal 0 -1 -0
    outer loop
      vertex 22.6 0 15
      vertex 20.6 0 0
      vertex 22.6 0 0
    endloop
  endfacet
  facet normal 0 -1 0
    outer loop
      vertex 7 0 15
      vertex 8.92236 0 14.2275
      vertex 8.8 0 15
    endloop
  endfacet
  facet normal 0 -1 0
    outer loop
      vertex 7 0 15
      vertex 9.27746 0 13.5305
      vertex 8.92236 0 14.2275
    endloop
  endfacet
  facet normal 0 -1 0
    outer loop
      vertex 7 0 15
      vertex 9.83054 0 12.9775
      vertex 9.27746 0 13.5305
    endloop
  endfacet
  facet normal 0 -1 -0
    outer loop
      vertex 10.5275 0 12.6224
      vertex 7 0 0
      vertex 11.3 0 12.5
    endloop
  endfacet
  facet normal 0 -1 -0
    outer loop
      vertex 9.83054 0 12.9775
      vertex 7 0 0
      vertex 10.5275 0 12.6224
    endloop
  endfacet
  facet normal 0 -1 0
    outer loop
      vertex 7 0 0
      vertex 9.83054 0 12.9775
      vertex 7 0 15
    endloop
  endfacet
  facet normal 0 -1 0
    outer loop
      vertex 13.6776 0 14.2275
      vertex 15.6 0 15
      vertex 13.8 0 15
    endloop
  endfacet
  facet normal 0 -1 0
    outer loop
      vertex 13.3225 0 13.5305
      vertex 15.6 0 15
      vertex 13.6776 0 14.2275
    endloop
  endfacet
  facet normal 0 -1 0
    outer loop
      vertex 12.7695 0 12.9775
      vertex 15.6 0 15
      vertex 13.3225 0 13.5305
    endloop
  endfacet
  facet normal 0 -1 0
    outer loop
      vertex 15.6 0 0
      vertex 11.3 0 12.5
      vertex 7 0 0
    endloop
  endfacet
  facet normal 0 -1 0
    outer loop
      vertex 11.3 0 12.5
      vertex 15.6 0 0
      vertex 12.0725 0 12.6224
    endloop
  endfacet
  facet normal 0 -1 0
    outer loop
      vertex 12.0725 0 12.6224
      vertex 15.6 0 0
      vertex 12.7695 0 12.9775
    endloop
  endfacet
  facet normal 0 -1 0
    outer loop
      vertex 12.7695 0 12.9775
      vertex 15.6 0 0
      vertex 15.6 0 15
    endloop
  endfacet
  facet normal 0 1 0
    outer loop
      vertex 22.6 50.95 15
      vertex 19.1 50.95 7
      vertex 19.1 50.95 15
    endloop
  endfacet
  facet normal 0 1 0
    outer loop
      vertex 19.1 50.95 7
      vertex 22.6 50.95 0
      vertex 3.5 50.95 7
    endloop
  endfacet
  facet normal 0 1 -0
    outer loop
      vertex 22.6 50.95 0
      vertex 19.1 50.95 7
      vertex 22.6 50.95 15
    endloop
  endfacet
  facet normal 0 1 -0
    outer loop
      vertex 3.5 50.95 7
      vertex 0 50.95 15
      vertex 3.5 50.95 15
    endloop
  endfacet
  facet normal 0 1 0
    outer loop
      vertex 3.5 50.95 7
      vertex 0 50.95 0
      vertex 0 50.95 15
    endloop
  endfacet
  facet normal 0 1 0
    outer loop
      vertex 0 50.95 0
      vertex 3.5 50.95 7
      vertex 22.6 50.95 0
    endloop
  endfacet
  facet normal 1 -0 0
    outer loop
      vertex 3.5 27.65 15
      vertex 3.5 50.95 7
      vertex 3.5 50.95 15
    endloop
  endfacet
  facet normal 1 0 0
    outer loop
      vertex 3.5 50.95 7
      vertex 3.5 27.65 15
      vertex 3.5 27.65 7
    endloop
  endfacet
  facet normal -1 0 0
    outer loop
      vertex 19.1 27.65 7
      vertex 19.1 50.95 15
      vertex 19.1 50.95 7
    endloop
  endfacet
  facet normal -1 -0 0
    outer loop
      vertex 19.1 50.95 15
      vertex 19.1 27.65 7
      vertex 19.1 27.65 15
    endloop
  endfacet
  facet normal -0 0 1
    outer loop
      vertex 3.5 50.95 7
      vertex 19.1 27.65 7
      vertex 19.1 50.95 7
    endloop
  endfacet
  facet normal 0 0 1
    outer loop
      vertex 19.1 27.65 7
      vertex 3.5 50.95 7
      vertex 3.5 27.65 7
    endloop
  endfacet
  facet normal 0 1 0
    outer loop
      vertex 19.1 27.65 15
      vertex 13.6776 27.65 14.2275
      vertex 13.8 27.65 15
    endloop
  endfacet
  facet normal 0 1 0
    outer loop
      vertex 19.1 27.65 15
      vertex 13.3225 27.65 13.5305
      vertex 13.6776 27.65 14.2275
    endloop
  endfacet
  facet normal 0 1 -0
    outer loop
      vertex 19.1 27.65 7
      vertex 13.3225 27.65 13.5305
      vertex 19.1 27.65 15
    endloop
  endfacet
  facet normal 0 1 0
    outer loop
      vertex 13.3225 27.65 13.5305
      vertex 19.1 27.65 7
      vertex 12.7695 27.65 12.9775
    endloop
  endfacet
  facet normal 0 1 0
    outer loop
      vertex 12.0725 27.65 12.6224
      vertex 19.1 27.65 7
      vertex 11.3 27.65 12.5
    endloop
  endfacet
  facet normal 0 1 0
    outer loop
      vertex 12.7695 27.65 12.9775
      vertex 19.1 27.65 7
      vertex 12.0725 27.65 12.6224
    endloop
  endfacet
  facet normal 0 1 0
    outer loop
      vertex 8.92236 27.65 14.2275
      vertex 3.5 27.65 15
      vertex 8.8 27.65 15
    endloop
  endfacet
  facet normal 0 1 0
    outer loop
      vertex 9.27746 27.65 13.5305
      vertex 3.5 27.65 15
      vertex 8.92236 27.65 14.2275
    endloop
  endfacet
  facet normal 0 1 0
    outer loop
      vertex 3.5 27.65 7
      vertex 9.27746 27.65 13.5305
      vertex 9.83054 27.65 12.9775
    endloop
  endfacet
  facet normal 0 1 0
    outer loop
      vertex 3.5 27.65 7
      vertex 9.83054 27.65 12.9775
      vertex 10.5275 27.65 12.6224
    endloop
  endfacet
  facet normal 0 1 0
    outer loop
      vertex 3.5 27.65 7
      vertex 11.3 27.65 12.5
      vertex 19.1 27.65 7
    endloop
  endfacet
  facet normal 0 1 0
    outer loop
      vertex 11.3 27.65 12.5
      vertex 3.5 27.65 7
      vertex 10.5275 27.65 12.6224
    endloop
  endfacet
  facet normal 0 1 0
    outer loop
      vertex 9.27746 27.65 13.5305
      vertex 3.5 27.65 7
      vertex 3.5 27.65 15
    endloop
  endfacet
  facet normal 0 -0.156434 -0.987688
    outer loop
      vertex 0 10.15 6.65
      vertex 6 12.205 6.32453
      vertex 6 10.15 6.65
    endloop
  endfacet
  facet normal -0 -0.156434 -0.987688
    outer loop
      vertex 6 12.205 6.32453
      vertex 0 10.15 6.65
      vertex 0 12.205 6.32453
    endloop
  endfacet
  facet normal 0 -0.156434 -0.987688
    outer loop
      vertex 16.6 10.15 6.65
      vertex 22.6 12.205 6.32453
      vertex 22.6 10.15 6.65
    endloop
  endfacet
  facet normal -0 -0.156434 -0.987688
    outer loop
      vertex 22.6 12.205 6.32453
      vertex 16.6 10.15 6.65
      vertex 16.6 12.205 6.32453
    endloop
  endfacet
  facet normal 0 -0.987688 -0.156434
    outer loop
      vertex 0 16.8 0
      vertex 22.6 16.4745 2.05496
      vertex 0 16.4745 2.05496
    endloop
  endfacet
  facet normal 0 -0.987688 -0.156434
    outer loop
      vertex 22.6 16.4745 2.05496
      vertex 0 16.8 0
      vertex 22.6 16.8 0
    endloop
  endfacet
  facet normal 0 -0.707107 -0.707107
    outer loop
      vertex 0 15.53 3.90877
      vertex 22.6 14.0588 5.37996
      vertex 0 14.0588 5.37996
    endloop
  endfacet
  facet normal 0 -0.707107 -0.707107
    outer loop
      vertex 22.6 14.0588 5.37996
      vertex 0 15.53 3.90877
      vertex 22.6 15.53 3.90877
    endloop
  endfacet
  facet normal -0 -0.45399 -0.891007
    outer loop
      vertex 6 12.205 6.32453
      vertex 0 12.205 6.32453
      vertex 6 12.65 6.09777
    endloop
  endfacet
  facet normal 0 -0.45399 -0.891007
    outer loop
      vertex 16.6 12.65 6.09777
      vertex 22.6 12.205 6.32453
      vertex 16.6 12.205 6.32453
    endloop
  endfacet
  facet normal -2.65234e-008 -0.453991 -0.891006
    outer loop
      vertex 22.6 12.205 6.32453
      vertex 16.6 12.65 6.09777
      vertex 22.6 14.0588 5.37996
    endloop
  endfacet
  facet normal 0 -0.453991 -0.891006
    outer loop
      vertex 6 12.65 6.09777
      vertex 22.6 14.0588 5.37996
      vertex 16.6 12.65 6.09777
    endloop
  endfacet
  facet normal 2.65234e-008 -0.453991 -0.891006
    outer loop
      vertex 0 14.0588 5.37996
      vertex 6 12.65 6.09777
      vertex 0 12.205 6.32453
    endloop
  endfacet
  facet normal 0 -0.453991 -0.891006
    outer loop
      vertex 6 12.65 6.09777
      vertex 0 14.0588 5.37996
      vertex 22.6 14.0588 5.37996
    endloop
  endfacet
  facet normal 0 -0.891007 -0.45399
    outer loop
      vertex 0 16.4745 2.05496
      vertex 22.6 15.53 3.90877
      vertex 0 15.53 3.90877
    endloop
  endfacet
  facet normal 0 -0.891007 -0.45399
    outer loop
      vertex 22.6 15.53 3.90877
      vertex 0 16.4745 2.05496
      vertex 22.6 16.4745 2.05496
    endloop
  endfacet
  facet normal 0 0.707107 -0.707107
    outer loop
      vertex 22.6 4.77004 3.90877
      vertex 0 6.24123 5.37996
      vertex 22.6 6.24123 5.37996
    endloop
  endfacet
  facet normal 0 0.707107 -0.707107
    outer loop
      vertex 0 6.24123 5.37996
      vertex 22.6 4.77004 3.90877
      vertex 0 4.77004 3.90877
    endloop
  endfacet
  facet normal 0 0.987688 -0.156434
    outer loop
      vertex 22.6 3.5 0
      vertex 0 3.82547 2.05496
      vertex 22.6 3.82547 2.05496
    endloop
  endfacet
  facet normal 0 0.987688 -0.156434
    outer loop
      vertex 0 3.82547 2.05496
      vertex 22.6 3.5 0
      vertex 0 3.5 0
    endloop
  endfacet
  facet normal 0 0.891007 -0.45399
    outer loop
      vertex 22.6 3.82547 2.05496
      vertex 0 4.77004 3.90877
      vertex 22.6 4.77004 3.90877
    endloop
  endfacet
  facet normal 0 0.891007 -0.45399
    outer loop
      vertex 0 4.77004 3.90877
      vertex 22.6 3.82547 2.05496
      vertex 0 3.82547 2.05496
    endloop
  endfacet
  facet normal -9.20024e-009 0.45399 -0.891007
    outer loop
      vertex 22.6 6.24123 5.37996
      vertex 16.6 7.65 6.09777
      vertex 22.6 8.09504 6.32453
    endloop
  endfacet
  facet normal 0 0.45399 -0.891007
    outer loop
      vertex 22.6 6.24123 5.37996
      vertex 6 7.65 6.09777
      vertex 16.6 7.65 6.09777
    endloop
  endfacet
  facet normal 0 0.45399 -0.891007
    outer loop
      vertex 0 6.24123 5.37996
      vertex 6 7.65 6.09777
      vertex 22.6 6.24123 5.37996
    endloop
  endfacet
  facet normal 9.20024e-009 0.45399 -0.891007
    outer loop
      vertex 0 8.09504 6.32453
      vertex 6 7.65 6.09777
      vertex 0 6.24123 5.37996
    endloop
  endfacet
  facet normal 0 0.45399 -0.891007
    outer loop
      vertex 6 7.65 6.09777
      vertex 0 8.09504 6.32453
      vertex 6 8.09504 6.32453
    endloop
  endfacet
  facet normal 0 0.45399 -0.891007
    outer loop
      vertex 22.6 8.09504 6.32453
      vertex 16.6 7.65 6.09777
      vertex 16.6 8.09504 6.32453
    endloop
  endfacet
  facet normal 0 0.156434 -0.987688
    outer loop
      vertex 0 8.09504 6.32453
      vertex 6 10.15 6.65
      vertex 6 8.09504 6.32453
    endloop
  endfacet
  facet normal 0 0.156434 -0.987688
    outer loop
      vertex 6 10.15 6.65
      vertex 0 8.09504 6.32453
      vertex 0 10.15 6.65
    endloop
  endfacet
  facet normal 0 0.156434 -0.987688
    outer loop
      vertex 16.6 8.09504 6.32453
      vertex 22.6 10.15 6.65
      vertex 22.6 8.09504 6.32453
    endloop
  endfacet
  facet normal 0 0.156434 -0.987688
    outer loop
      vertex 22.6 10.15 6.65
      vertex 16.6 8.09504 6.32453
      vertex 16.6 10.15 6.65
    endloop
  endfacet
  facet normal -0.987688 0 0.156434
    outer loop
      vertex 13.6776 0 14.2275
      vertex 13.8 27.65 15
      vertex 13.6776 27.65 14.2275
    endloop
  endfacet
  facet normal -0.987688 0 0.156434
    outer loop
      vertex 13.8 27.65 15
      vertex 13.6776 0 14.2275
      vertex 13.8 0 15
    endloop
  endfacet
  facet normal 0.987688 -0 0.156435
    outer loop
      vertex 8.8 0 15
      vertex 8.92236 27.65 14.2275
      vertex 8.8 27.65 15
    endloop
  endfacet
  facet normal 0.987688 0 0.156435
    outer loop
      vertex 8.92236 27.65 14.2275
      vertex 8.8 0 15
      vertex 8.92236 0 14.2275
    endloop
  endfacet
  facet normal 0.156434 0 0.987688
    outer loop
      vertex 10.5275 27.65 12.6224
      vertex 11.3 0 12.5
      vertex 11.3 27.65 12.5
    endloop
  endfacet
  facet normal 0.156434 0 0.987688
    outer loop
      vertex 11.3 0 12.5
      vertex 10.5275 27.65 12.6224
      vertex 10.5275 0 12.6224
    endloop
  endfacet
  facet normal -0.453991 0 0.891006
    outer loop
      vertex 12.0725 27.65 12.6224
      vertex 12.7695 0 12.9775
      vertex 12.7695 27.65 12.9775
    endloop
  endfacet
  facet normal -0.453991 0 0.891006
    outer loop
      vertex 12.7695 0 12.9775
      vertex 12.0725 27.65 12.6224
      vertex 12.0725 0 12.6224
    endloop
  endfacet
  facet normal -0.891006 0 0.453991
    outer loop
      vertex 13.3225 0 13.5305
      vertex 13.6776 27.65 14.2275
      vertex 13.3225 27.65 13.5305
    endloop
  endfacet
  facet normal -0.891006 0 0.453991
    outer loop
      vertex 13.6776 27.65 14.2275
      vertex 13.3225 0 13.5305
      vertex 13.6776 0 14.2275
    endloop
  endfacet
  facet normal -0.156434 0 0.987688
    outer loop
      vertex 11.3 27.65 12.5
      vertex 12.0725 0 12.6224
      vertex 12.0725 27.65 12.6224
    endloop
  endfacet
  facet normal -0.156434 0 0.987688
    outer loop
      vertex 12.0725 0 12.6224
      vertex 11.3 27.65 12.5
      vertex 11.3 0 12.5
    endloop
  endfacet
  facet normal 0.707107 -0 0.707107
    outer loop
      vertex 9.27746 0 13.5305
      vertex 9.83054 27.65 12.9775
      vertex 9.27746 27.65 13.5305
    endloop
  endfacet
  facet normal 0.707107 0 0.707107
    outer loop
      vertex 9.83054 27.65 12.9775
      vertex 9.27746 0 13.5305
      vertex 9.83054 0 12.9775
    endloop
  endfacet
  facet normal 0.891006 -0 0.453991
    outer loop
      vertex 8.92236 0 14.2275
      vertex 9.27746 27.65 13.5305
      vertex 8.92236 27.65 14.2275
    endloop
  endfacet
  facet normal 0.891006 0 0.453991
    outer loop
      vertex 9.27746 27.65 13.5305
      vertex 8.92236 0 14.2275
      vertex 9.27746 0 13.5305
    endloop
  endfacet
  facet normal 0.453991 0 0.891006
    outer loop
      vertex 9.83054 27.65 12.9775
      vertex 10.5275 0 12.6224
      vertex 10.5275 27.65 12.6224
    endloop
  endfacet
  facet normal 0.453991 0 0.891006
    outer loop
      vertex 10.5275 0 12.6224
      vertex 9.83054 27.65 12.9775
      vertex 9.83054 0 12.9775
    endloop
  endfacet
  facet normal -0.707107 0 0.707107
    outer loop
      vertex 12.7695 0 12.9775
      vertex 13.3225 27.65 13.5305
      vertex 12.7695 27.65 12.9775
    endloop
  endfacet
  facet normal -0.707107 0 0.707107
    outer loop
      vertex 13.3225 27.65 13.5305
      vertex 12.7695 0 12.9775
      vertex 13.3225 0 13.5305
    endloop
  endfacet
  facet normal 1 -0 0
    outer loop
      vertex 2 0 15
      vertex 2 2 0
      vertex 2 2 15
    endloop
  endfacet
  facet normal 1 0 0
    outer loop
      vertex 2 2 0
      vertex 2 0 15
      vertex 2 0 0
    endloop
  endfacet
  facet normal -1 0 0
    outer loop
      vertex 7 0 0
      vertex 7 2 15
      vertex 7 2 0
    endloop
  endfacet
  facet normal -1 -0 0
    outer loop
      vertex 7 2 15
      vertex 7 0 0
      vertex 7 0 15
    endloop
  endfacet
  facet normal 0 -1 0
    outer loop
      vertex 2 2 0
      vertex 7 2 15
      vertex 2 2 15
    endloop
  endfacet
  facet normal 0 -1 -0
    outer loop
      vertex 7 2 15
      vertex 2 2 0
      vertex 7 2 0
    endloop
  endfacet
  facet normal 1 -0 0
    outer loop
      vertex 15.6 0 15
      vertex 15.6 2 0
      vertex 15.6 2 15
    endloop
  endfacet
  facet normal 1 0 0
    outer loop
      vertex 15.6 2 0
      vertex 15.6 0 15
      vertex 15.6 0 0
    endloop
  endfacet
  facet normal -1 0 0
    outer loop
      vertex 20.6 0 0
      vertex 20.6 2 15
      vertex 20.6 2 0
    endloop
  endfacet
  facet normal -1 -0 0
    outer loop
      vertex 20.6 2 15
      vertex 20.6 0 0
      vertex 20.6 0 15
    endloop
  endfacet
  facet normal 0 -1 0
    outer loop
      vertex 15.6 2 0
      vertex 20.6 2 15
      vertex 15.6 2 15
    endloop
  endfacet
  facet normal 0 -1 -0
    outer loop
      vertex 20.6 2 15
      vertex 15.6 2 0
      vertex 20.6 2 0
    endloop
  endfacet
  facet normal 1 -0 0
    outer loop
      vertex 2 18.3 15
      vertex 2 20.3 0
      vertex 2 20.3 15
    endloop
  endfacet
  facet normal 1 0 0
    outer loop
      vertex 2 20.3 0
      vertex 2 18.3 15
      vertex 2 18.3 0
    endloop
  endfacet
  facet normal -1 0 0
    outer loop
      vertex 7 18.3 0
      vertex 7 20.3 15
      vertex 7 20.3 0
    endloop
  endfacet
  facet normal -1 -0 0
    outer loop
      vertex 7 20.3 15
      vertex 7 18.3 0
      vertex 7 18.3 15
    endloop
  endfacet
  facet normal 0 -1 0
    outer loop
      vertex 2 20.3 0
      vertex 7 20.3 15
      vertex 2 20.3 15
    endloop
  endfacet
  facet normal 0 -1 -0
    outer loop
      vertex 7 20.3 15
      vertex 2 20.3 0
      vertex 7 20.3 0
    endloop
  endfacet
  facet normal 0 1 -0
    outer loop
      vertex 7 18.3 0
      vertex 2 18.3 15
      vertex 7 18.3 15
    endloop
  endfacet
  facet normal 0 1 0
    outer loop
      vertex 2 18.3 15
      vertex 7 18.3 0
      vertex 2 18.3 0
    endloop
  endfacet
  facet normal 1 -0 0
    outer loop
      vertex 15.6 18.3 15
      vertex 15.6 20.3 0
      vertex 15.6 20.3 15
    endloop
  endfacet
  facet normal 1 0 0
    outer loop
      vertex 15.6 20.3 0
      vertex 15.6 18.3 15
      vertex 15.6 18.3 0
    endloop
  endfacet
  facet normal -1 0 0
    outer loop
      vertex 20.6 18.3 0
      vertex 20.6 20.3 15
      vertex 20.6 20.3 0
    endloop
  endfacet
  facet normal -1 -0 0
    outer loop
      vertex 20.6 20.3 15
      vertex 20.6 18.3 0
      vertex 20.6 18.3 15
    endloop
  endfacet
  facet normal 0 -1 0
    outer loop
      vertex 15.6 20.3 0
      vertex 20.6 20.3 15
      vertex 15.6 20.3 15
    endloop
  endfacet
  facet normal 0 -1 -0
    outer loop
      vertex 20.6 20.3 15
      vertex 15.6 20.3 0
      vertex 20.6 20.3 0
    endloop
  endfacet
  facet normal 0 1 -0
    outer loop
      vertex 20.6 18.3 0
      vertex 15.6 18.3 15
      vertex 20.6 18.3 15
    endloop
  endfacet
  facet normal 0 1 0
    outer loop
      vertex 15.6 18.3 15
      vertex 20.6 18.3 0
      vertex 15.6 18.3 0
    endloop
  endfacet
  facet normal 0 -1 0
    outer loop
      vertex 6 12.65 15
      vertex 8 12.65 8.65
      vertex 8 12.65 15
    endloop
  endfacet
  facet normal 0 -1 -0
    outer loop
      vertex 8 12.65 8.65
      vertex 6 12.65 6.09777
      vertex 14.6 12.65 8.65
    endloop
  endfacet
  facet normal 0 -1 0
    outer loop
      vertex 6 12.65 6.09777
      vertex 8 12.65 8.65
      vertex 6 12.65 15
    endloop
  endfacet
  facet normal 0 -1 0
    outer loop
      vertex 14.6 12.65 8.65
      vertex 16.6 12.65 15
      vertex 14.6 12.65 15
    endloop
  endfacet
  facet normal 0 -1 0
    outer loop
      vertex 14.6 12.65 8.65
      vertex 16.6 12.65 6.09777
      vertex 16.6 12.65 15
    endloop
  endfacet
  facet normal 0 -1 0
    outer loop
      vertex 16.6 12.65 6.09777
      vertex 14.6 12.65 8.65
      vertex 6 12.65 6.09777
    endloop
  endfacet
  facet normal 0 1 0
    outer loop
      vertex 16.6 7.65 15
      vertex 14.6 7.65 8.65
      vertex 14.6 7.65 15
    endloop
  endfacet
  facet normal 0 1 0
    outer loop
      vertex 14.6 7.65 8.65
      vertex 16.6 7.65 6.09777
      vertex 8 7.65 8.65
    endloop
  endfacet
  facet normal 0 1 -0
    outer loop
      vertex 16.6 7.65 6.09777
      vertex 14.6 7.65 8.65
      vertex 16.6 7.65 15
    endloop
  endfacet
  facet normal 0 1 -0
    outer loop
      vertex 8 7.65 8.65
      vertex 6 7.65 15
      vertex 8 7.65 15
    endloop
  endfacet
  facet normal 0 1 0
    outer loop
      vertex 8 7.65 8.65
      vertex 6 7.65 6.09777
      vertex 6 7.65 15
    endloop
  endfacet
  facet normal 0 1 0
    outer loop
      vertex 6 7.65 6.09777
      vertex 8 7.65 8.65
      vertex 16.6 7.65 6.09777
    endloop
  endfacet
  facet normal -1 0 0
    outer loop
      vertex 8 7.65 8.65
      vertex 8 12.65 15
      vertex 8 12.65 8.65
    endloop
  endfacet
  facet normal -1 -0 0
    outer loop
      vertex 8 12.65 15
      vertex 8 7.65 8.65
      vertex 8 7.65 15
    endloop
  endfacet
  facet normal 1 0 0
    outer loop
      vertex 6 12.65 15
      vertex 6 12.205 6.32453
      vertex 6 12.65 6.09777
    endloop
  endfacet
  facet normal 1 0 0
    outer loop
      vertex 6 12.65 15
      vertex 6 10.15 6.65
      vertex 6 12.205 6.32453
    endloop
  endfacet
  facet normal 1 -0 0
    outer loop
      vertex 6 7.65 15
      vertex 6 10.15 6.65
      vertex 6 12.65 15
    endloop
  endfacet
  facet normal 1 0 0
    outer loop
      vertex 6 10.15 6.65
      vertex 6 7.65 15
      vertex 6 8.09504 6.32453
    endloop
  endfacet
  facet normal 1 0 0
    outer loop
      vertex 6 8.09504 6.32453
      vertex 6 7.65 15
      vertex 6 7.65 6.09777
    endloop
  endfacet
  facet normal -1 0 0
    outer loop
      vertex 16.6 12.205 6.32453
      vertex 16.6 12.65 15
      vertex 16.6 12.65 6.09777
    endloop
  endfacet
  facet normal -1 0 0
    outer loop
      vertex 16.6 10.15 6.65
      vertex 16.6 12.65 15
      vertex 16.6 12.205 6.32453
    endloop
  endfacet
  facet normal -1 0 0
    outer loop
      vertex 16.6 7.65 15
      vertex 16.6 10.15 6.65
      vertex 16.6 8.09504 6.32453
    endloop
  endfacet
  facet normal -1 0 0
    outer loop
      vertex 16.6 7.65 15
      vertex 16.6 8.09504 6.32453
      vertex 16.6 7.65 6.09777
    endloop
  endfacet
  facet normal -1 0 0
    outer loop
      vertex 16.6 10.15 6.65
      vertex 16.6 7.65 15
      vertex 16.6 12.65 15
    endloop
  endfacet
  facet normal 1 -0 0
    outer loop
      vertex 14.6 7.65 15
      vertex 14.6 12.65 8.65
      vertex 14.6 12.65 15
    endloop
  endfacet
  facet normal 1 0 0
    outer loop
      vertex 14.6 12.65 8.65
      vertex 14.6 7.65 15
      vertex 14.6 7.65 8.65
    endloop
  endfacet
  facet normal 0 0 -1
    outer loop
      vertex 8 7.65 8.65
      vertex 14.6 12.65 8.65
      vertex 14.6 7.65 8.65
    endloop
  endfacet
  facet normal -0 0 -1
    outer loop
      vertex 14.6 12.65 8.65
      vertex 8 7.65 8.65
      vertex 8 12.65 8.65
    endloop
  endfacet
endsolid OpenSCAD_Model
